<svg width="327" height="327" viewBox="0 0 327 327" fill="none" xmlns="http://www.w3.org/2000/svg">
<rect width="327" height="327" rx="32" fill="#1769FF"/>
<path d="M115.509 89.4149C122.559 89.4149 128.995 90.0428 134.815 91.2854C140.636 92.528 145.606 94.5684 149.753 97.4068C153.899 100.245 157.117 104.012 159.406 108.721C161.695 113.43 162.833 119.237 162.833 126.157C162.833 133.625 161.132 139.851 157.745 144.835C154.357 149.818 149.334 153.899 142.703 157.078C151.832 159.707 158.647 164.311 163.147 170.877C167.646 177.443 169.896 185.37 169.896 194.644C169.896 202.112 168.444 208.587 165.54 214.054C162.636 219.522 158.726 223.982 153.808 227.435C148.889 230.901 143.291 233.452 137 235.113C130.669 236.774 124.142 237.611 117.602 237.598H45.7798V89.4149H115.509ZM111.363 149.387C117.17 149.387 121.945 148 125.686 145.24C129.426 142.467 131.297 137.981 131.284 131.755C131.284 128.302 130.656 125.463 129.413 123.253C128.171 121.042 126.51 119.303 124.43 118.06C122.35 116.818 119.97 115.954 117.275 115.47C114.502 114.986 111.69 114.738 108.865 114.751H78.3751V149.413L111.363 149.387ZM113.233 212.262C116.307 212.275 119.368 211.961 122.363 211.334C125.267 210.706 127.831 209.672 130.041 208.221C132.252 206.769 134.017 204.794 135.339 202.308C136.647 199.823 137.314 196.632 137.314 192.76C137.314 185.161 135.168 179.719 130.878 176.475C126.588 173.218 120.911 171.597 113.861 171.597H78.3751V212.275L113.233 212.262ZM210.889 209.149C215.31 213.439 221.68 215.585 229.985 215.585C235.937 215.585 241.051 214.093 245.341 211.124C249.632 208.155 252.261 205.003 253.229 201.681H279.166C275.02 214.551 268.65 223.747 260.069 229.279C251.489 234.812 241.117 237.585 228.939 237.585C220.502 237.585 212.89 236.238 206.114 233.543C199.339 230.849 193.597 227.003 188.888 222.02C184.179 217.036 180.543 211.098 177.992 204.179C175.442 197.26 174.16 189.647 174.16 181.354C174.16 173.336 175.468 165.868 178.097 158.948C180.726 152.029 184.467 146.051 189.307 141.002C194.146 135.954 199.928 131.977 206.638 129.073C213.348 126.17 220.79 124.718 228.952 124.718C238.082 124.718 246.035 126.484 252.823 130.015C259.599 133.547 265.171 138.282 269.526 144.233C273.882 150.185 277.034 156.96 278.97 164.573C280.906 172.185 281.599 180.138 281.05 188.444H203.642C204.048 197.953 206.468 204.872 210.889 209.149ZM244.203 152.709C240.672 148.837 235.309 146.902 228.115 146.902C223.406 146.902 219.495 147.699 216.395 149.282C213.282 150.878 210.797 152.84 208.927 155.194C207.056 157.549 205.748 160.034 204.99 162.663C204.231 165.292 203.773 167.646 203.642 169.713H251.58C250.181 162.257 247.722 156.581 244.203 152.709ZM198.593 96.9359H258.487V113.548H198.593V96.9359Z" fill="white"/>
</svg>
