<svg width="299" height="299" viewBox="0 0 299 299" fill="none" xmlns="http://www.w3.org/2000/svg">
<g clip-path="url(#clip0_41_25)">
<path d="M99.7601 299C127.217 299 149.5 276.675 149.5 249.167V199.333H99.7601C72.3036 199.333 50.02 221.659 50.02 249.167C50.02 276.675 72.3036 299 99.7601 299Z" fill="#0ACF83"/>
<path d="M50.02 149.5C50.02 121.992 72.3036 99.6666 99.7601 99.6666H149.5V199.333H99.7601C72.3036 199.333 50.02 177.008 50.02 149.5Z" fill="#A259FF"/>
<path d="M50.02 49.8333C50.02 22.3253 72.3036 0 99.7601 0H149.5V99.6667H99.7601C72.3036 99.6667 50.02 77.3413 50.02 49.8333Z" fill="#F24E1E"/>
<path d="M149.5 0H199.24C226.697 0 248.98 22.3253 248.98 49.8333C248.98 77.3413 226.697 99.6667 199.24 99.6667H149.5V0Z" fill="#FF7262"/>
<path d="M248.98 149.5C248.98 177.008 226.697 199.333 199.24 199.333C171.784 199.333 149.5 177.008 149.5 149.5C149.5 121.992 171.784 99.6666 199.24 99.6666C226.697 99.6666 248.98 121.992 248.98 149.5Z" fill="#1ABCFE"/>
</g>
<defs>
<clipPath id="clip0_41_25">
<rect width="199" height="299" fill="white" transform="translate(50)"/>
</clipPath>
</defs>
</svg>
