<svg width="512" height="512" viewBox="0 0 512 512" fill="none" xmlns="http://www.w3.org/2000/svg">
<g clip-path="url(#clip0_42_28)">
<path d="M440.6 284.6C422.7 284.7 407.2 289 394.2 295.4C389.4 285.9 384.6 277.6 383.8 271.4C382.9 264.2 381.8 259.8 382.9 251.2C384 242.6 389 230.4 389 229.4C388.9 228.5 387.9 224.1 377.6 224C367.3 223.9 358.4 226 357.4 228.7C356.4 231.4 354.4 237.6 353.1 244C351.3 253.4 332.5 286.7 321.8 304.2C318.3 297.4 315.3 291.4 314.7 286.6C313.8 279.4 312.7 275 313.8 266.4C314.9 257.8 319.9 245.6 319.9 244.6C319.8 243.7 318.8 239.3 308.5 239.2C298.2 239.1 289.3 241.2 288.3 243.9C287.3 246.6 286.2 253 284 259.2C281.9 265.4 256.9 321 250.4 335.5C247.1 342.9 244.2 348.8 242.1 352.8C240 356.8 242 353.1 241.8 353.5C240 356.9 239 358.8 239 358.8V358.9C237.6 361.4 236.1 363.8 235.4 363.8C234.9 363.8 233.9 357.1 235.6 347.9C239.3 328.6 248.3 298.5 248.2 297.4C248.2 296.9 249.9 291.6 242.4 288.9C235.1 286.2 232.5 290.7 231.9 290.7C231.3 290.7 230.8 292.3 230.8 292.3C230.8 292.3 238.9 258.4 215.3 258.4C200.5 258.4 180.1 274.5 170 289.2C163.6 292.7 150 300.1 135.6 308C130.1 311 124.4 314.2 119 317.1L117.9 315.9C89.2999 285.4 36.3999 263.8 38.5999 222.8C39.3999 207.9 44.5999 168.6 140.2 121C218.5 82 281.2 92.7 292.1 116.5C307.6 150.5 258.6 213.7 177.2 222.8C146.2 226.3 129.9 214.3 125.8 209.8C121.5 205.1 120.9 204.9 119.3 205.8C116.7 207.2 118.3 211.4 119.3 213.9C121.7 220.2 131.7 231.4 148.7 237C163.6 241.9 200 244.6 244 227.6C293.3 208.5 331.8 155.5 320.5 111.2C309 66.1 234.2 51.3 163.5 76.4C121.4 91.4 75.7999 114.8 42.9999 145.5C3.99994 181.9 -2.20006 213.7 0.399942 226.9C9.49994 274 74.3999 304.7 100.4 327.4C99.0999 328.1 97.8999 328.8 96.7999 329.4C83.7999 335.8 34.2999 361.7 21.8999 389.1C7.89994 420.1 24.0999 442.4 34.8999 445.4C68.2999 454.7 102.5 438 121 410.5C139.4 383 137.2 347.3 128.7 331L128.4 330.4L138.6 324.4C145.2 320.5 151.7 316.9 157.4 313.8C154.2 322.5 151.9 332.8 150.7 347.8C149.3 365.4 156.5 388.2 166 397.2C170.2 401.1 175.2 401.2 178.3 401.2C189.3 401.2 194.3 392.1 199.8 381.2C206.6 367.9 212.6 352.5 212.6 352.5C212.6 352.5 205.1 394.2 225.6 394.2C233.1 394.2 240.6 384.5 244 379.5V379.6C244 379.6 244.2 379.3 244.6 378.6C245.4 377.4 245.8 376.7 245.8 376.7V376.5C248.8 371.3 255.5 359.4 265.5 339.7C278.4 314.3 290.8 282.5 290.8 282.5C290.8 282.5 292 290.3 295.7 303.1C297.9 310.7 302.7 319 306.4 327.1C303.4 331.3 301.6 333.7 301.6 333.7L301.7 333.8C299.3 337 296.6 340.4 293.8 343.8C283.6 356 271.4 369.9 269.8 373.9C267.9 378.6 268.3 382.1 272 384.9C274.7 386.9 279.5 387.3 284.6 386.9C293.8 386.3 300.2 384 303.4 382.6C308.4 380.8 314.1 378.1 319.6 374.1C329.6 366.7 335.7 356.2 335.1 342.2C334.8 334.5 332.3 326.9 329.2 319.7C330.1 318.4 331 317.1 331.9 315.7C347.7 292.6 359.9 267.2 359.9 267.2C359.9 267.2 361.1 275 364.8 287.8C366.7 294.3 370.5 301.4 373.9 308.4C359.1 320.5 349.8 334.5 346.6 343.7C340.7 360.7 345.3 368.4 354 370.2C357.9 371 363.5 369.2 367.7 367.4C372.9 365.7 379.2 362.8 385 358.5C395 351.1 404.6 340.8 404.1 326.9C403.8 320.5 402.1 314.2 399.8 308.2C412.4 303 428.7 300 449.4 302.5C493.9 307.7 502.7 335.5 501 347.1C499.3 358.7 490 365.1 486.9 367.1C483.8 369 482.8 369.7 483.1 371.1C483.5 373.2 484.9 373.1 487.6 372.7C491.3 372.1 511 363.2 511.8 341.8C513 314.3 486.9 284.3 440.6 284.6ZM97.3999 400.3C82.6999 416.4 61.9999 422.5 53.1999 417.3C43.6999 411.8 47.3999 388.1 65.4999 371C76.4999 360.6 90.7999 351 100.2 345.1C102.3 343.8 105.5 341.9 109.3 339.6C109.9 339.2 110.3 339 110.3 339C111 338.6 111.8 338.1 112.6 337.6C119.3 362 112.9 383.4 97.3999 400.3ZM204.9 327.2C199.8 339.7 189 371.8 182.5 370C176.9 368.5 173.5 344.2 181.4 320.2C185.4 308.1 193.9 293.7 198.9 288.1C207 279.1 215.8 276.1 218 279.8C220.6 284.6 208.1 319.4 204.9 327.2ZM293.6 369.6C291.4 370.7 289.4 371.5 288.5 370.9C287.8 370.5 289.4 369 289.4 369C289.4 369 300.5 357.1 304.9 351.6C307.4 348.4 310.4 344.7 313.6 340.5V341.7C313.6 356.1 299.8 365.7 293.6 369.6ZM362 354C360.4 352.8 360.6 349.1 366 337.5C368.1 332.9 372.9 325.2 381.2 317.9C382.2 320.9 382.8 323.8 382.7 326.5C382.6 344.5 369.8 351.2 362 354Z" fill="#CF649A"/>
</g>
<defs>
<clipPath id="clip0_42_28">
<rect width="512" height="384" fill="white" transform="translate(0 64)"/>
</clipPath>
</defs>
</svg>
